<?xml version="1.0" encoding="utf-8"?>
<!-- Generator: Adobe Illustrator 15.1.0, SVG Export Plug-In . SVG Version: 6.00 Build 0)  -->
<svg viewBox="0 0 594 139" fill="#FFFFFF" xmlns="http://www.w3.org/2000/svg" class="sc-59cfc0d3-0 fVllFw"><path d="M0.587804 110.216C0.587804 100.565 3.82088 93.1909 10.287 88.0944C16.7531 82.998 25.6031 80.453 36.8372 80.4595C42.1908 80.4113 47.5274 81.0695 52.7085 82.4172L60.9382 84.3748V78.5019C60.9382 73.2814 59.24 69.2029 55.8436 66.2665C52.4473 63.33 47.81 61.8617 41.9317 61.8617C30.8283 61.8617 24.1009 67.0169 21.7496 77.3273L0 71.4543C2.15363 62.7992 7.33045 55.197 14.5977 50.0179C21.8476 44.8692 31.0242 42.2916 42.1277 42.2851C56.1049 42.2851 66.7184 45.4826 73.9683 51.8777C81.2182 58.2727 84.8431 67.6042 84.8431 79.8722V137.036H61.9179V122.745C55.7783 133.584 45.524 139 31.1549 138.994C23.2279 139.154 15.5318 136.323 9.60117 131.065C3.5988 125.779 0.594335 118.83 0.587804 110.216ZM60.9382 102.777V101.994L55.2558 100.232C49.1162 98.4113 44.283 97.4977 40.756 97.4912C30.9589 97.4912 26.0603 101.211 26.0603 108.65C26.0603 116.089 31.0896 119.809 41.1479 119.809C47.0262 119.809 51.7941 118.308 55.4517 115.306C59.1093 112.304 60.9382 108.128 60.9382 102.777Z"></path><path d="M183.5 0.00012207V24.4709H135.103V137.037H108.65V24.4709H60.0565V0.00012207H183.5Z"></path><path d="M158.811 110.216C158.811 100.565 162.044 93.1909 168.51 88.0944C174.976 82.998 183.826 80.453 195.06 80.4595C200.414 80.4113 205.75 81.0695 210.931 82.4172L219.161 84.3748V78.5019C219.161 73.2814 217.463 69.2029 214.067 66.2665C210.67 63.33 206.033 61.8617 200.155 61.8617C189.051 61.8617 182.324 67.0169 179.973 77.3273L158.223 71.4543C160.377 62.7992 165.553 55.197 172.821 50.0179C180.07 44.8692 189.247 42.2916 200.351 42.2851C214.328 42.2851 224.941 45.4826 232.191 51.8777C239.441 58.2727 243.066 67.6042 243.066 79.8722V137.036H220.141V122.745C214.001 133.584 203.747 139 189.378 138.994C181.451 139.154 173.755 136.323 167.824 131.065C161.822 125.779 158.817 118.83 158.811 110.216ZM219.161 102.777V101.994L213.479 100.232C207.339 98.4113 202.506 97.4977 198.979 97.4912C189.182 97.4912 184.283 101.211 184.283 108.65C184.283 116.089 189.312 119.809 199.371 119.809C205.249 119.809 210.017 118.308 213.675 115.306C217.332 112.304 219.161 108.128 219.161 102.777Z"></path><path d="M263.042 137.037V0.00012207H288.123V137.037H263.042Z"></path><path d="M373.957 101.602L395.315 110.02C392.407 118.681 386.77 126.168 379.247 131.359C371.801 136.449 362.723 138.994 352.011 138.994C337.511 138.994 325.69 134.491 316.546 125.486C307.402 116.481 302.83 104.669 302.83 90.0521C302.83 76.6095 307.173 65.2877 315.86 56.0866C324.547 46.8856 335.617 42.2851 349.072 42.2851C362.004 42.2851 372.422 46.0699 380.325 53.6396C388.228 61.2092 392.179 71.3238 392.179 83.9833C392.204 87.7997 391.81 91.6072 391.004 95.3378H327.91C328.034 102.131 330.418 107.514 335.062 111.488C339.706 115.463 345.486 117.453 352.403 117.459C363.768 117.459 370.952 112.174 373.957 101.602ZM327.91 78.6976H367.687L367.883 77.9146C367.958 75.7634 367.527 73.6246 366.625 71.6697C365.724 69.7149 364.376 67.9984 362.69 66.658C359.222 63.8586 354.683 62.4556 349.072 62.449C344.166 62.3432 339.367 63.8952 335.454 66.8538C331.607 69.7774 328.932 73.9777 327.91 78.6976Z"></path><path d="M433.915 137.036H408.835V44.2427H433.915V56.3803C440.048 46.9835 449.454 42.2851 462.131 42.2851C472.32 42.2851 480.452 45.3195 486.526 51.3883C492.6 57.457 495.637 65.7771 495.637 76.3485V137.036H470.557V83.2003C470.557 76.8118 468.989 71.7871 465.854 68.1263C462.719 64.4654 458.474 62.6383 453.118 62.6448C450.483 62.5546 447.862 63.0627 445.453 64.1308C443.043 65.199 440.907 66.7993 439.206 68.8115C435.679 72.9225 433.915 78.5671 433.915 85.7452V137.036Z"></path><path d="M524.44 105.714V64.7985H505.238V44.2431H524.44V13.7036H549.325V44.2431H584.203V64.7985H549.325V105.714C549.325 109.238 550.304 111.978 552.264 113.936C553.27 114.92 554.467 115.687 555.781 116.192C557.095 116.697 558.499 116.929 559.906 116.872C566.437 116.872 570.095 112.566 570.878 103.952L594 108.259C592.693 118.047 589.036 125.617 583.027 130.968C577.018 136.319 569.115 138.994 559.318 138.994C548.214 138.994 539.626 136.025 533.551 130.087C527.477 124.148 524.44 116.024 524.44 105.714Z"></path></svg>